<?xml version="1.0" encoding="iso-8859-1"?>
<!-- Uploaded to: SVG Repo, www.svgrepo.com, Generator: SVG Repo Mixer Tools -->
<!DOCTYPE svg PUBLIC "-//W3C//DTD SVG 1.1//EN" "http://www.w3.org/Graphics/SVG/1.1/DTD/svg11.dtd">
<svg fill="#000000" height="800px" width="800px" version="1.1" id="Capa_1" xmlns="http://www.w3.org/2000/svg" xmlns:xlink="http://www.w3.org/1999/xlink" 
	 viewBox="0 0 188.927 188.927" xml:space="preserve">
<path d="M188.2,59.183c-0.735-1.01-1.92-1.589-3.251-1.589h-14.545c-1.927,0-4.11,1.167-5.19,2.776l-14.257,21.224H25.681
	C15.841,81.593,0,97.463,0,107.32c0,10.291,14.489,10.291,21.452,10.291c0.784,0,40.414-0.018,40.414-0.018l85.159,13.612
	c0.534,0.085,1.155,0.128,1.847,0.128c1.104,0,2.215-0.113,3.046-0.31l4.78-1.131c2.469-0.584,2.718-2.327,2.736-2.847
	c0.018-0.521-0.113-2.275-2.536-3.027l-20.733-6.426h30.559h0.453c2.182,0,4.328-1.554,4.993-3.614l16.543-51.205
	C189.124,61.504,188.937,60.194,188.2,59.183z M30.241,102.593c-5.042,0-20.167,0-20.167,0s-2.167,0.021-1.34-1.423
	c0.564-0.984,1.255-2.2,1.653-2.723c3.938-5.188,7.688-9.563,11.688-10.438c1.773-0.388,6.504-0.387,8.679-0.387
	c1.083,0,0.971,1.345,0.971,1.345v12.417C31.725,101.385,31.95,102.593,30.241,102.593z M56.725,98.593c0,2.209-1.791,4-4,4h-5
	c-2.209,0-4-1.791-4-4v-3c0-2.209,1.791-4,4-4h5c2.209,0,4,1.791,4,4V98.593z M74.725,98.593c0,2.209-1.791,4-4,4h-5
	c-2.209,0-4-1.791-4-4v-3c0-2.209,1.791-4,4-4h5c2.209,0,4,1.791,4,4V98.593z M92.725,98.593c0,2.209-1.791,4-4,4h-5
	c-2.209,0-4-1.791-4-4v-3c0-2.209,1.791-4,4-4h5c2.209,0,4,1.791,4,4V98.593z M110.725,98.593c0,2.209-1.791,4-4,4h-5
	c-2.209,0-4-1.791-4-4v-3c0-2.209,1.791-4,4-4h5c2.209,0,4,1.791,4,4V98.593z M128.725,98.593c0,2.209-1.791,4-4,4h-5
	c-2.209,0-4-1.791-4-4v-3c0-2.209,1.791-4,4-4h5c2.209,0,4,1.791,4,4V98.593z M146.725,98.593c0,2.209-1.791,4-4,4h-5
	c-2.209,0-4-1.791-4-4v-3c0-2.209,1.791-4,4-4h5c2.209,0,4,1.791,4,4V98.593z"/>
</svg>